# xmcd
#
# Track frame offsets:
# 150
# 15297
# 30515
# 46130
# 60667
# 76905
# 91127
# 107272
#
# Disc length: 1642 seconds
#
# Revision: 0
# Processed by: cddbd v1.4PL0 Copyright (c) Steve Scherf et al.
# Submitted via: Audion 3.0.2 (http://www.panic.com/audion/)
#
DISCID=46066808
DTITLE=John Berry - John Berry "Faithfully"
DYEAR=1900
DGENRE=
TTITLE0=your love amazes me
TTITLE1=you and only you
TTITLE2=fire
TTITLE3=faithfully
TTITLE4=standing on the edge of goodbye
TTITLE5=if i had any pride left at all
TTITLE6=kiss me in the car
TTITLE7=i give my heart
EXTD=
EXTT0=
EXTT1=
EXTT2=
EXTT3=
EXTT4=
EXTT5=
EXTT6=
EXTT7=
PLAYORDER=
